<svg xmlns="http://www.w3.org/2000/svg" width="32" height="32" viewBox="0 0 32 32" fill="none"><path d="M22.6667 14.6667H24.6667C25.1971 14.6667 25.7058 14.456 26.0809 14.0809C26.456 13.7058 26.6667 13.1971 26.6667 12.6667C26.6667 12.1362 26.456 11.6275 26.0809 11.2525C25.7058 10.8774 25.1971 10.6667 24.6667 10.6667H22.6667V17.3333M22.6667 22.6667V28H24C24.7072 28 25.3855 27.719 25.8856 27.219C26.3857 26.7189 26.6667 26.0406 26.6667 25.3333C26.6667 24.6261 26.3857 23.9478 25.8856 23.4477C25.3855 22.9476 24.7072 22.6667 24 22.6667H22.6667ZM4 6.66667C4 7.37391 4.28095 8.05219 4.78105 8.55229C5.28115 9.05238 5.95942 9.33333 6.66667 9.33333C7.37391 9.33333 8.05219 9.05238 8.55228 8.55229C9.05238 8.05219 9.33333 7.37391 9.33333 6.66667C9.33333 5.95942 9.05238 5.28115 8.55228 4.78105C8.05219 4.28095 7.37391 4 6.66667 4C5.95942 4 5.28115 4.28095 4.78105 4.78105C4.28095 5.28115 4 5.95942 4 6.66667Z" stroke="black" stroke-width="2" stroke-linecap="round" stroke-linejoin="round"></path><path d="M6.6665 9.3335V13.3335C6.6665 13.6871 6.80698 14.0263 7.05703 14.2763C7.30708 14.5264 7.64622 14.6668 7.99984 14.6668H11.9998M11.9998 14.6668V24.0002C11.9998 24.3538 12.1403 24.6929 12.3904 24.943C12.6404 25.193 12.9795 25.3335 13.3332 25.3335H17.3332M11.9998 14.6668H17.3332" stroke="black" stroke-width="2" stroke-linecap="round" stroke-linejoin="round"></path></svg>