<svg xmlns="http://www.w3.org/2000/svg" width="20" height="21" viewBox="0 0 20 21" fill="none"><path d="M5.5 4.5C5.36739 4.5 5.24021 4.55268 5.14645 4.64645C5.05268 4.74021 5 4.86739 5 5V10C5 10.1326 5.05268 10.2598 5.14645 10.3536C5.24021 10.4473 5.36739 10.5 5.5 10.5H10.5C10.6326 10.5 10.7598 10.4473 10.8536 10.3536C10.9473 10.2598 11 10.1326 11 10V5C11 4.86739 10.9473 4.74021 10.8536 4.64645C10.7598 4.55268 10.6326 4.5 10.5 4.5H5.5ZM6 16.5V11.5H7.796C8.296 11.5 8.709 11.598 9.033 11.793C9.358 11.988 9.6 12.272 9.758 12.643C9.919 13.014 10 13.463 10 13.987C10 14.515 9.92 14.967 9.758 15.342C9.61245 15.7 9.35587 16.0018 9.026 16.203C8.702 16.401 8.292 16.5 7.796 16.5H6ZM7.666 12.306H6.974V15.691H7.666C7.895 15.691 8.093 15.656 8.261 15.588C8.42398 15.5216 8.56624 15.4129 8.673 15.273C8.781 15.131 8.861 14.955 8.914 14.745C8.97 14.535 8.997 14.289 8.997 14.005C8.997 13.629 8.949 13.315 8.853 13.065C8.7746 12.8323 8.62126 12.6322 8.417 12.496C8.222 12.369 7.971 12.306 7.666 12.306Z" fill="black"></path><path d="M5 2.5C4.46957 2.5 3.96086 2.71071 3.58579 3.08579C3.21071 3.46086 3 3.96957 3 4.5V17.5H2.5C2.36739 17.5 2.24021 17.5527 2.14645 17.6464C2.05268 17.7402 2 17.8674 2 18C2 18.1326 2.05268 18.2598 2.14645 18.3536C2.24021 18.4473 2.36739 18.5 2.5 18.5H13.5C13.6326 18.5 13.7598 18.4473 13.8536 18.3536C13.9473 18.2598 14 18.1326 14 18C14 17.8674 13.9473 17.7402 13.8536 17.6464C13.7598 17.5527 13.6326 17.5 13.5 17.5H13V13.5C13.2652 13.5 13.5196 13.6054 13.7071 13.7929C13.8946 13.9804 14 14.2348 14 14.5V15C14 15.3978 14.158 15.7794 14.4393 16.0607C14.7206 16.342 15.1022 16.5 15.5 16.5C15.8978 16.5 16.2794 16.342 16.5607 16.0607C16.842 15.7794 17 15.3978 17 15V10.5H17.5C17.6326 10.5 17.7598 10.4473 17.8536 10.3536C17.9473 10.2598 18 10.1326 18 10V6.824C18 6.208 18 5.398 17.706 4.743C17.5427 4.36509 17.265 4.04789 16.912 3.836C16.534 3.611 16.064 3.5 15.5 3.5C15.3674 3.5 15.2402 3.55268 15.1464 3.64645C15.0527 3.74021 15 3.86739 15 4C15 4.13261 15.0527 4.25979 15.1464 4.35355C15.2402 4.44732 15.3674 4.5 15.5 4.5C15.936 4.5 16.216 4.586 16.4 4.695C16.5767 4.80183 16.7148 4.96228 16.794 5.153C16.941 5.481 16.984 5.899 16.995 6.375H15.5C15.3674 6.375 15.2402 6.42768 15.1464 6.52145C15.0527 6.61521 15 6.74239 15 6.875V10C15 10.1326 15.0527 10.2598 15.1464 10.3536C15.2402 10.4473 15.3674 10.5 15.5 10.5H16V15C16 15.1326 15.9473 15.2598 15.8536 15.3536C15.7598 15.4473 15.6326 15.5 15.5 15.5C15.3674 15.5 15.2402 15.4473 15.1464 15.3536C15.0527 15.2598 15 15.1326 15 15V14.5C15 13.9696 14.7893 13.4609 14.4142 13.0858C14.0391 12.7107 13.5304 12.5 13 12.5V4.5C13 3.96957 12.7893 3.46086 12.4142 3.08579C12.0391 2.71071 11.5304 2.5 11 2.5H5ZM12 4.5V17.5H4V4.5C4 4.23478 4.10536 3.98043 4.29289 3.79289C4.48043 3.60536 4.73478 3.5 5 3.5H11C11.2652 3.5 11.5196 3.60536 11.7071 3.79289C11.8946 3.98043 12 4.23478 12 4.5Z" fill="black"></path></svg>