<svg xmlns="http://www.w3.org/2000/svg" width="32" height="32" viewBox="0 0 32 32" fill="none"><path d="M6.66667 10.6668C5.95942 10.6668 5.28115 10.3859 4.78105 9.88578C4.28095 9.38568 4 8.70741 4 8.00016C4 7.29292 4.28095 6.61464 4.78105 6.11454C5.28115 5.61445 5.95942 5.3335 6.66667 5.3335C7.37391 5.3335 8.05219 5.61445 8.55229 6.11454C9.05238 6.61464 9.33333 7.29292 9.33333 8.00016C9.33333 8.70741 9.05238 9.38568 8.55229 9.88578C8.05219 10.3859 7.37391 10.6668 6.66667 10.6668ZM6.66667 10.6668V21.3335M16 10.6668C15.2928 10.6668 14.6145 10.3859 14.1144 9.88578C13.6143 9.38568 13.3333 8.70741 13.3333 8.00016C13.3333 7.29292 13.6143 6.61464 14.1144 6.11454C14.6145 5.61445 15.2928 5.3335 16 5.3335C16.7072 5.3335 17.3855 5.61445 17.8856 6.11454C18.3857 6.61464 18.6667 7.29292 18.6667 8.00016C18.6667 8.70741 18.3857 9.38568 17.8856 9.88578C17.3855 10.3859 16.7072 10.6668 16 10.6668ZM16 10.6668V21.3335M6.66667 21.3335C7.37391 21.3335 8.05219 21.6144 8.55229 22.1145C9.05238 22.6146 9.33333 23.2929 9.33333 24.0002C9.33333 24.7074 9.05238 25.3857 8.55229 25.8858C8.05219 26.3859 7.37391 26.6668 6.66667 26.6668C5.95942 26.6668 5.28115 26.3859 4.78105 25.8858C4.28095 25.3857 4 24.7074 4 24.0002C4 23.2929 4.28095 22.6146 4.78105 22.1145C5.28115 21.6144 5.95942 21.3335 6.66667 21.3335ZM16 21.3335C16.7072 21.3335 17.3855 21.6144 17.8856 22.1145C18.3857 22.6146 18.6667 23.2929 18.6667 24.0002C18.6667 24.7074 18.3857 25.3857 17.8856 25.8858C17.3855 26.3859 16.7072 26.6668 16 26.6668C15.2928 26.6668 14.6145 26.3859 14.1144 25.8858C13.6143 25.3857 13.3333 24.7074 13.3333 24.0002C13.3333 23.2929 13.6143 22.6146 14.1144 22.1145C14.6145 21.6144 15.2928 21.3335 16 21.3335ZM22.6667 8.00016C22.6667 8.70741 22.9476 9.38568 23.4477 9.88578C23.9478 10.3859 24.6261 10.6668 25.3333 10.6668C26.0406 10.6668 26.7189 10.3859 27.219 9.88578C27.719 9.38568 28 8.70741 28 8.00016C28 7.29292 27.719 6.61464 27.219 6.11454C26.7189 5.61445 26.0406 5.3335 25.3333 5.3335C24.6261 5.3335 23.9478 5.61445 23.4477 6.11454C22.9476 6.61464 22.6667 7.29292 22.6667 8.00016Z" stroke="black" stroke-width="2" stroke-linecap="round" stroke-linejoin="round"></path><path d="M25.3332 10.667V13.3337C25.3332 14.0409 25.0522 14.7192 24.5521 15.2193C24.052 15.7194 23.3737 16.0003 22.6665 16.0003H6.6665" stroke="black" stroke-width="2" stroke-linecap="round" stroke-linejoin="round"></path></svg>